<svg width="24" height="24" viewBox="0 0 24 24" fill="none" xmlns="http://www.w3.org/2000/svg">
<path d="M24 17.9999C24 18.7072 23.719 19.3854 23.219 19.8855C22.7189 20.3856 22.0406 20.6666 21.3333 20.6666H2.66667C1.95942 20.6666 1.28115 20.3856 0.781049 19.8855C0.280952 19.3854 0 18.7072 0 17.9999V5.99992C0 5.29267 0.280952 4.6144 0.781049 4.1143C1.28115 3.6142 1.95942 3.33325 2.66667 3.33325H21.3333C22.0406 3.33325 22.7189 3.6142 23.219 4.1143C23.719 4.6144 24 5.29267 24 5.99992V17.9999Z" fill="#EEEEEE"/>
<path d="M12 16.6666C14.5773 16.6666 16.6666 14.5772 16.6666 11.9999C16.6666 9.42259 14.5773 7.33325 12 7.33325C9.42265 7.33325 7.33331 9.42259 7.33331 11.9999C7.33331 14.5772 9.42265 16.6666 12 16.6666Z" fill="#ED1B2F"/>
</svg>
