<svg width="18" height="18" viewBox="0 0 18 18" fill="none" xmlns="http://www.w3.org/2000/svg">
<path d="M9 18C13.9706 18 18 13.9706 18 9C18 4.02944 13.9706 0 9 0C4.02944 0 0 4.02944 0 9C0 13.9706 4.02944 18 9 18Z" fill="#FFCC4D"/>
<path d="M13.6675 11.8146C13.6244 11.7757 13.5692 11.753 13.5113 11.7504C13.4534 11.7477 13.3964 11.7653 13.35 11.8001C13.3305 11.8146 11.389 13.2501 8.99997 13.2501C6.61697 13.2501 4.66897 11.8146 4.64997 11.8001C4.60362 11.7653 4.5466 11.7477 4.48869 11.7503C4.43078 11.7528 4.37557 11.7755 4.33251 11.8143C4.28945 11.8531 4.26121 11.9057 4.25263 11.963C4.24405 12.0203 4.25566 12.0789 4.28547 12.1286C4.34997 12.2361 5.89397 14.7501 8.99997 14.7501C12.106 14.7501 13.6505 12.2361 13.7145 12.1286C13.7442 12.0789 13.7558 12.0204 13.7472 11.9632C13.7386 11.9059 13.7105 11.8534 13.6675 11.8146Z" fill="#664500"/>
<path d="M9.00001 13.2956C8.92601 13.2956 8.85451 13.2901 8.78101 13.2876V15.5456H9.21851V13.2871C9.14601 13.2896 9.07401 13.2956 9.00001 13.2956Z" fill="#65471B"/>
<path d="M11 13C11.008 12.998 10.275 13.189 9.777 13.243C9.594 13.264 9.4085 13.281 9.2185 13.2875V15.546H10C10.55 15.546 11 15.096 11 14.546V13ZM7 13C6.992 12.998 7.725 13.189 8.223 13.243C8.406 13.264 8.5915 13.281 8.7815 13.2875V15.546H8C7.45 15.546 7 15.096 7 14.546V13Z" fill="white"/>
<path d="M13.6675 11.8145C13.6245 11.7756 13.5693 11.7529 13.5113 11.7503C13.4534 11.7476 13.3964 11.7652 13.35 11.8C13.335 11.811 12.2205 12.634 10.6445 13.035C10.423 13.0915 9.7125 13.25 9.0015 13.2505C8.2895 13.2505 7.577 13.0915 7.3555 13.035C5.7795 12.634 4.665 11.811 4.65 11.8C4.60354 11.7658 4.54673 11.7487 4.48915 11.7516C4.43156 11.7545 4.37673 11.7771 4.3339 11.8157C4.29107 11.8543 4.26286 11.9065 4.25405 11.9635C4.24523 12.0204 4.25634 12.0787 4.2855 12.1285C4.334 12.2095 5.228 13.662 6.99999 14.369V13.4545C6.992 13.4525 7.72499 13.6435 8.22299 13.6975C8.40599 13.7185 8.5915 13.7355 8.7815 13.742C8.8545 13.7445 8.926 13.75 9 13.75C9.074 13.75 9.14549 13.7445 9.219 13.742C9.409 13.7355 9.5945 13.719 9.7775 13.6975C10.2755 13.6435 11.0085 13.4525 11.0005 13.4545V14.369C12.7725 13.662 13.6665 12.2095 13.715 12.1285C13.7447 12.0787 13.7562 12.0202 13.7475 11.9629C13.7388 11.9057 13.7106 11.8532 13.6675 11.8145ZM13.312 7.01196C13.312 7.86896 12.843 8.56396 12.264 8.56396C11.6855 8.56396 11.216 7.86896 11.216 7.01196C11.216 6.15496 11.685 5.45996 12.264 5.45996C12.843 5.45996 13.312 6.15496 13.312 7.01196ZM4.72849 7.01196C4.72849 7.86896 5.1975 8.56396 5.7765 8.56396C6.355 8.56396 6.8245 7.86896 6.8245 7.01196C6.8245 6.15496 6.3555 5.45996 5.7765 5.45996C5.1975 5.45996 4.72849 6.15496 4.72849 7.01196Z" fill="#65471B"/>
<path d="M17.404 4.81346C17.3185 4.73046 16.7705 4.95047 16.216 4.66797C15.072 4.08497 12.181 3.52246 10.299 4.85596C10.0975 4.99846 9.25551 5.02246 9.02001 5.01246C8.78451 5.02296 7.94251 4.99896 7.74101 4.85596C5.85951 3.52246 2.96851 4.08497 1.82451 4.66797C1.27001 4.95047 0.722008 4.73046 0.636508 4.81346C0.513008 4.93296 0.513008 5.41146 0.637008 5.53146C0.760008 5.65096 1.37551 5.78896 1.49801 6.14746C1.62151 6.50646 1.62251 8.62646 2.60451 9.35946C3.52401 10.0455 5.66901 10.252 7.02851 9.47847C8.21451 8.80397 8.17301 7.38397 8.39051 6.53797C8.46801 6.23646 8.68651 6.08446 9.02051 6.08446C9.35451 6.08446 9.57301 6.23646 9.65051 6.53797C9.86801 7.38347 9.82601 8.80397 11.0125 9.47847C12.372 10.2515 14.517 10.045 15.436 9.35946C16.4185 8.62696 16.4195 6.50646 16.5425 6.14746C16.665 5.78896 17.2805 5.65046 17.4035 5.53146C17.5275 5.41146 17.528 4.93296 17.404 4.81346ZM7.30701 6.63847C7.26851 7.19097 7.17001 8.25196 6.50851 8.62846C6.10301 8.85946 5.57451 8.99996 5.02151 8.99996H5.02101C4.40851 8.99996 3.55951 8.82647 3.22751 8.57897C2.81251 8.26946 2.65451 6.99547 2.59501 6.51897C2.55701 6.21547 2.45501 5.47396 2.78901 5.35996C3.31901 5.17946 4.05851 5.03846 4.81501 5.03846C5.16151 5.03846 6.32551 5.05996 6.89251 5.40896C7.39501 5.71746 7.32851 6.33447 7.30701 6.63847ZM15.446 6.51197C15.3865 6.98897 15.2285 8.26946 14.8135 8.57897C14.4815 8.82647 13.6325 8.99996 13.02 8.99996H13.0195C12.466 8.99996 11.938 8.85946 11.532 8.62846C10.8705 8.25246 10.772 7.19797 10.7335 6.64547C10.7125 6.34147 10.6455 5.71996 11.148 5.41146C11.7155 5.06246 12.879 5.03846 13.2255 5.03846C13.982 5.03846 14.721 5.17696 15.2515 5.35746C15.5855 5.47146 15.484 6.20847 15.446 6.51197Z" fill="#292F33"/>
</svg>
