<svg width="18" height="18" viewBox="0 0 18 18" fill="none" xmlns="http://www.w3.org/2000/svg">
<path d="M18 2.5V1.5H0V16.5H18V15.5H3V13H18V12H3V9.5H18V8.5H3V6H18V5H3V2.5H18Z" fill="#8899A6"/>
<path d="M13.9135 10.2811C13.8077 9.96827 13.6474 9.67661 13.44 9.41961C13.2325 9.16165 12.9717 8.95153 12.6755 8.80361C12.3685 8.64885 12.0288 8.56998 11.685 8.57361C11.642 8.57361 11.581 8.57795 11.502 8.58661L11.2355 7.29011C11.5485 6.98029 11.8201 6.63122 12.0435 6.25162C12.293 5.82811 12.486 5.36661 12.616 4.88111C12.7505 4.39212 12.8155 3.91011 12.8155 3.40861C12.8155 2.35561 12.5445 1.43861 12.002 0.671115C11.9428 0.5947 11.8781 0.522677 11.8085 0.455615C11.6115 0.278115 11.4145 0.249615 10.9565 0.588615C10.7215 0.764615 10.515 1.01861 10.3445 1.34161C10.1685 1.66361 10.0405 2.02461 9.95149 2.44161C9.85638 2.88267 9.80745 3.33243 9.80549 3.78361C9.82562 4.46116 9.92223 5.13426 10.0935 5.79011C9.70849 6.17962 9.39749 6.50512 9.15299 6.76561C8.87562 7.07235 8.61857 7.39688 8.38349 7.73711C8.13224 8.09839 7.92526 8.48851 7.76699 8.89911C7.60336 9.32326 7.51324 9.77219 7.50049 10.2266C7.50449 10.7176 7.59799 11.1986 7.78099 11.6586C7.96391 12.1096 8.22566 12.5244 8.55399 12.8836C8.88235 13.2393 9.27731 13.527 9.71649 13.7306C10.3453 14.017 11.0461 14.1059 11.7265 13.9856C11.7585 14.1296 11.7992 14.2999 11.8485 14.4966C11.927 14.8201 11.9855 15.0826 12.0235 15.2766C12.0602 15.4723 12.0783 15.6593 12.078 15.8376C12.078 16.1081 12.0485 16.3151 11.9795 16.4881C11.9545 16.5891 11.887 16.6941 11.779 16.7981C11.6584 16.9141 11.5157 17.0048 11.3595 17.0646C11.1558 17.1489 10.934 17.1801 10.715 17.1551C10.8127 17.1024 10.9022 17.0349 10.9835 16.9526C11.2 16.7311 11.3095 16.4586 11.3095 16.1416C11.3088 15.9177 11.2525 15.6974 11.1455 15.5006C11.0373 15.3124 10.8854 15.1531 10.7025 15.0361C10.5178 14.9237 10.3056 14.8647 10.0895 14.8656H10.0865C9.83049 14.8826 9.60949 14.9631 9.43599 15.1011C9.25565 15.2348 9.11365 15.4099 9.00999 15.6266C8.90953 15.8403 8.8521 16.0717 8.84099 16.3076C8.86099 16.8276 9.07949 17.2501 9.49399 17.5616C9.88599 17.8521 10.3475 18.0001 10.8635 18.0001C11.2203 18.0034 11.5726 17.9198 11.89 17.7566C12.2039 17.5969 12.4682 17.3545 12.6545 17.0556C12.8395 16.7546 12.934 16.4101 12.934 16.0326C12.934 15.7851 12.9125 15.5526 12.8695 15.3231C12.8104 15.0106 12.7464 14.6991 12.6775 14.3886C12.6251 14.1646 12.577 13.9395 12.5335 13.7136C13.016 13.4996 13.3895 13.1891 13.6465 12.7886C13.9337 12.3414 14.0843 11.8201 14.08 11.2886C14.0779 10.9461 14.0217 10.6061 13.9135 10.2811ZM12.3525 12.8701L11.829 10.2956C11.959 10.3233 12.0802 10.3693 12.1925 10.4336C12.3905 10.5456 12.544 10.6981 12.665 10.9026C12.7855 11.0976 12.861 11.3216 12.893 11.5541C12.893 12.1771 12.716 12.6116 12.3525 12.8701ZM11.7735 3.55061C11.6777 3.82576 11.5532 4.09005 11.402 4.33912C11.2613 4.57854 11.1009 4.80582 10.9225 5.01861C10.8762 5.07375 10.8281 5.12744 10.7785 5.17962C10.7374 4.98788 10.7125 4.79303 10.704 4.59712C10.714 4.24551 10.7652 3.8963 10.8565 3.55661C10.9415 3.22611 11.0605 2.92711 11.204 2.67861C11.357 2.44428 11.5143 2.32678 11.676 2.32611C11.7335 2.32611 11.774 2.34011 11.8055 2.36961C11.8405 2.40511 11.865 2.47361 11.8805 2.59661C11.8955 2.66311 11.904 2.74811 11.904 2.84361C11.904 3.06511 11.86 3.30261 11.7735 3.55061ZM9.30099 9.29011C9.62749 8.81861 10.027 8.37162 10.5165 7.93112L10.686 8.80061C10.3275 8.98161 10.0255 9.25062 9.78549 9.60561C9.51128 10.0065 9.35978 10.4785 9.34949 10.9641C9.35799 11.4206 9.50399 11.8321 9.78499 12.1896C10.0579 12.5378 10.4398 12.7843 10.8695 12.8896L10.9295 12.9046L10.9905 12.8901C11.259 12.8266 11.2875 12.6546 11.2875 12.5836C11.2875 12.4111 11.1755 12.2731 10.998 12.2236C10.8225 12.1471 10.6781 12.0135 10.588 11.8446C10.487 11.6606 10.4335 11.4881 10.4335 11.3476C10.4335 11.1096 10.5185 10.8961 10.6915 10.6961C10.7985 10.5751 10.9075 10.4798 11.0185 10.4101L11.565 13.1641C11.3927 13.2019 11.2179 13.2273 11.042 13.2401C10.35 13.2176 9.78299 12.9901 9.35749 12.5651C9.15269 12.3617 8.98993 12.1199 8.87849 11.8536C8.77403 11.6021 8.71609 11.3338 8.70749 11.0616C8.72199 10.4266 8.92199 9.83011 9.30099 9.29011Z" fill="#31373D"/>
</svg>
