<svg width="18" height="18" viewBox="0 0 18 18" fill="none" xmlns="http://www.w3.org/2000/svg">
<path d="M1.06498 7.428L1.06298 7.427C1.06298 7.427 0.0374756 13.6355 0.0374756 14.5305C0.0374756 15.4425 0.708976 16.1815 1.53748 16.1815C1.87748 16.1815 2.18748 16.0525 2.43898 15.8425L7.52198 11.3735L1.06498 7.428ZM16.91 7.428L16.912 7.427C16.912 7.427 17.9375 13.6355 17.9375 14.5305C17.9375 15.4425 17.266 16.1815 16.4375 16.1815C16.0975 16.1815 15.7875 16.0525 15.536 15.8425L10.453 11.3735L16.91 7.428Z" fill="#31373D"/>
<path d="M12.9875 12.0254C15.3347 12.0254 17.2375 10.1226 17.2375 7.77539C17.2375 5.42818 15.3347 3.52539 12.9875 3.52539C10.6403 3.52539 8.73749 5.42818 8.73749 7.77539C8.73749 10.1226 10.6403 12.0254 12.9875 12.0254Z" fill="#14171A"/>
<path d="M4.98749 12.0254C7.3347 12.0254 9.23749 10.1226 9.23749 7.77539C9.23749 5.42818 7.3347 3.52539 4.98749 3.52539C2.64028 3.52539 0.737488 5.42818 0.737488 7.77539C0.737488 10.1226 2.64028 12.0254 4.98749 12.0254Z" fill="#14171A"/>
<path d="M4.98749 3.52539H12.9875V11.9604H4.98749V3.52539Z" fill="#14171A"/>
<path d="M6.53748 14.1504C7.91819 14.1504 9.03748 13.0311 9.03748 11.6504C9.03748 10.2697 7.91819 9.15039 6.53748 9.15039C5.15676 9.15039 4.03748 10.2697 4.03748 11.6504C4.03748 13.0311 5.15676 14.1504 6.53748 14.1504Z" fill="#14171A"/>
<path d="M11.4375 14.1504C12.8182 14.1504 13.9375 13.0311 13.9375 11.6504C13.9375 10.2697 12.8182 9.15039 11.4375 9.15039C10.0568 9.15039 8.9375 10.2697 8.9375 11.6504C8.9375 13.0311 10.0568 14.1504 11.4375 14.1504Z" fill="#14171A"/>
<path d="M11.4375 13.1504C12.2659 13.1504 12.9375 12.4788 12.9375 11.6504C12.9375 10.822 12.2659 10.1504 11.4375 10.1504C10.6091 10.1504 9.9375 10.822 9.9375 11.6504C9.9375 12.4788 10.6091 13.1504 11.4375 13.1504Z" fill="#67757F"/>
<path d="M6.53748 13.1504C7.3659 13.1504 8.03748 12.4788 8.03748 11.6504C8.03748 10.822 7.3659 10.1504 6.53748 10.1504C5.70905 10.1504 5.03748 10.822 5.03748 11.6504C5.03748 12.4788 5.70905 13.1504 6.53748 13.1504Z" fill="#67757F"/>
<path d="M12.8675 6.36789C13.3101 6.36789 13.669 6.00905 13.669 5.56639C13.669 5.12374 13.3101 4.76489 12.8675 4.76489C12.4248 4.76489 12.066 5.12374 12.066 5.56639C12.066 6.00905 12.4248 6.36789 12.8675 6.36789Z" fill="#FFCC4D"/>
<path d="M12.8675 9.60495C13.3101 9.60495 13.669 9.24611 13.669 8.80345C13.669 8.3608 13.3101 8.00195 12.8675 8.00195C12.4248 8.00195 12.066 8.3608 12.066 8.80345C12.066 9.24611 12.4248 9.60495 12.8675 9.60495Z" fill="#77B255"/>
<path d="M11.249 7.98654C11.6917 7.98654 12.0505 7.6277 12.0505 7.18504C12.0505 6.74239 11.6917 6.38354 11.249 6.38354C10.8064 6.38354 10.4475 6.74239 10.4475 7.18504C10.4475 7.6277 10.8064 7.98654 11.249 7.98654Z" fill="#50A5E6"/>
<path d="M14.486 7.98654C14.9287 7.98654 15.2875 7.6277 15.2875 7.18504C15.2875 6.74239 14.9287 6.38354 14.486 6.38354C14.0434 6.38354 13.6845 6.74239 13.6845 7.18504C13.6845 7.6277 14.0434 7.98654 14.486 7.98654Z" fill="#DD2E44"/>
<path d="M5.574 6.25691V5.17291C5.574 5.10594 5.5474 5.04172 5.50004 4.99437C5.45269 4.94701 5.38847 4.92041 5.3215 4.92041H4.5425C4.47553 4.92041 4.41131 4.94701 4.36396 4.99437C4.3166 5.04172 4.29 5.10594 4.29 5.17291V6.25691L4.932 6.89941L5.574 6.25691ZM4.2895 8.07191V9.15591C4.2895 9.29541 4.4025 9.40841 4.542 9.40841H5.321C5.38797 9.40841 5.45219 9.38181 5.49954 9.33445C5.5469 9.2871 5.5735 9.22288 5.5735 9.15591V8.07191L4.9315 7.42941L4.2895 8.07191ZM6.924 6.52191H5.84L5.1975 7.16441L5.84 7.80691H6.924C6.99093 7.80678 7.05507 7.78013 7.1024 7.73281C7.14972 7.68548 7.17637 7.62134 7.1765 7.55441V6.77491C7.1765 6.7079 7.14991 6.64362 7.10257 6.59619C7.05524 6.54876 6.99101 6.52204 6.924 6.52191ZM4.0245 6.52191H2.94C2.87307 6.52204 2.80893 6.54869 2.7616 6.59601C2.71428 6.64334 2.68763 6.70748 2.6875 6.77441V7.55341C2.6875 7.69291 2.8005 7.80591 2.94 7.80591H4.024L4.6665 7.16341L4.0245 6.52191Z" fill="#8899A6"/>
</svg>
