<svg width="18" height="18" viewBox="0 0 18 18" fill="none" xmlns="http://www.w3.org/2000/svg">
<path d="M8.21397 15.1654C8.46494 15.3411 8.77539 15.4098 9.07704 15.3565C9.37869 15.3033 9.64683 15.1324 9.82247 14.8814C9.88327 14.7945 9.90704 14.687 9.88857 14.5825C9.8701 14.4781 9.81089 14.3852 9.72397 14.3244L8.79897 13.3499L10.91 14.8274C10.9906 14.8841 11.0816 14.9243 11.1778 14.9457C11.274 14.9671 11.3735 14.9693 11.4705 14.9521C11.5676 14.935 11.6603 14.8988 11.7433 14.8458C11.8264 14.7927 11.8981 14.7238 11.9545 14.6429C12.0109 14.5622 12.051 14.4712 12.0723 14.375C12.0935 14.2789 12.0957 14.1795 12.0785 14.0825C12.0614 13.9855 12.0253 13.8928 11.9724 13.8098C11.9195 13.7267 11.8507 13.6549 11.77 13.5984L9.97197 11.9459L12.6595 13.8274C12.7401 13.8841 12.8311 13.9243 12.9273 13.9457C13.0235 13.9671 13.123 13.9693 13.22 13.9521C13.3171 13.935 13.4098 13.8988 13.4928 13.8458C13.5759 13.7927 13.6476 13.7238 13.704 13.6429C13.7604 13.5622 13.8005 13.4712 13.8218 13.375C13.843 13.2789 13.8452 13.1795 13.828 13.0825C13.8109 12.9855 13.7748 12.8928 13.7219 12.8098C13.669 12.7267 13.6002 12.6549 13.5195 12.5984L11.1365 10.5619L14.0685 12.6144C14.1491 12.6711 14.2401 12.7113 14.3363 12.7327C14.4325 12.7541 14.532 12.7563 14.629 12.7391C14.7261 12.722 14.8188 12.6858 14.9018 12.6328C14.9849 12.5797 15.0566 12.5108 15.113 12.4299C15.1694 12.3492 15.2095 12.2582 15.2308 12.162C15.252 12.0659 15.2542 11.9665 15.237 11.8695C15.2199 11.7725 15.1838 11.6798 15.1309 11.5968C15.078 11.5137 15.0092 11.4419 14.9285 11.3854L2.36647 5.59692L0.632973 8.35742C0.438473 8.65742 0.491473 9.06392 0.770973 9.30292L4.66397 12.6384C4.84164 12.7904 5.02614 12.9336 5.21747 13.0679L8.21397 15.1654Z" fill="#EF9645"/>
<path d="M14.901 10.8759L9.25001 6.80039L9.22051 6.76039L9.24701 6.72039L9.27351 6.69389L9.70051 6.92839C10.1795 7.23839 11.274 7.69639 12.1035 7.69639C12.671 7.69639 13.011 7.48389 13.1125 7.06789C13.1432 6.88402 13.0999 6.69547 12.9919 6.54349C12.884 6.3915 12.7202 6.28846 12.5365 6.25689C12.0348 6.18181 11.5563 5.99543 11.136 5.71139L10.8585 5.52489C10.5465 5.31439 10.193 5.07589 9.93201 4.92189C9.60701 4.72489 9.25351 4.62939 8.85051 4.62939C8.25251 4.62939 7.64501 4.84039 7.05801 5.04439L6.42501 5.26239C6.15181 5.35425 5.86523 5.40004 5.57701 5.39789C4.80501 5.39789 4.04951 5.10489 3.31901 4.82189L3.24551 4.79289C3.09515 4.73542 2.92951 4.73191 2.77686 4.78298C2.62421 4.83405 2.49401 4.93652 2.40851 5.07289L0.675008 7.83439C0.587063 7.97211 0.551648 8.13689 0.575245 8.29858C0.598842 8.46027 0.679872 8.60806 0.803508 8.71489L4.69601 12.0509C4.87201 12.2014 5.05701 12.3449 5.24601 12.4769L8.32851 14.6349C8.43609 14.7103 8.55746 14.7637 8.68569 14.7922C8.81393 14.8206 8.94651 14.8235 9.07587 14.8007C9.20522 14.7779 9.32882 14.7299 9.43961 14.6593C9.55039 14.5887 9.64618 14.497 9.72151 14.3894C9.78212 14.3024 9.80583 14.1949 9.78747 14.0904C9.7691 13.986 9.71016 13.893 9.62351 13.8319L8.70701 13.1904C8.68305 13.1735 8.66285 13.1519 8.64767 13.1269C8.63249 13.1018 8.62267 13.0739 8.61882 13.0449C8.61496 13.0158 8.61717 12.9863 8.62529 12.9582C8.63341 12.9301 8.64728 12.9039 8.66601 12.8814C8.69979 12.8405 8.7478 12.8139 8.80039 12.8069C8.85298 12.8 8.90625 12.8132 8.94951 12.8439L10.939 14.2364C11.0911 14.3429 11.2793 14.3846 11.4621 14.3523C11.645 14.3201 11.8075 14.2165 11.914 14.0644C12.0205 13.9123 12.0622 13.7241 12.0299 13.5413C11.9977 13.3584 11.8941 13.1959 11.742 13.0894L9.88001 11.7864C9.85605 11.7695 9.83585 11.7479 9.82067 11.7229C9.80549 11.6978 9.79567 11.6699 9.79181 11.6409C9.78796 11.6118 9.79017 11.5823 9.79829 11.5542C9.80641 11.5261 9.82028 11.4999 9.83901 11.4774C9.87299 11.4368 9.92097 11.4104 9.97346 11.4035C10.026 11.3965 10.0791 11.4095 10.1225 11.4399L12.6885 13.2364C12.7638 13.2891 12.8488 13.3265 12.9385 13.3464C13.0283 13.3663 13.1211 13.3683 13.2116 13.3523C13.3022 13.3364 13.3887 13.3027 13.4662 13.2533C13.5437 13.2039 13.6108 13.1397 13.6635 13.0644C13.7162 12.9891 13.7536 12.9041 13.7735 12.8144C13.7934 12.7246 13.7954 12.6318 13.7794 12.5413C13.7635 12.4507 13.7298 12.3642 13.6804 12.2867C13.631 12.2092 13.5668 12.1421 13.4915 12.0894L11.0575 10.3859C11.0333 10.3692 11.0129 10.3476 10.9976 10.3226C10.9823 10.2975 10.9724 10.2695 10.9686 10.2404C10.9648 10.2113 10.9671 10.1817 10.9755 10.1535C10.9838 10.1253 10.998 10.0992 11.017 10.0769C11.0474 10.0407 11.0902 10.0172 11.1371 10.0111C11.1839 10.005 11.2314 10.0167 11.27 10.0439L14.098 12.0234C14.1734 12.0761 14.2583 12.1135 14.3481 12.1334C14.4379 12.1532 14.5307 12.1552 14.6213 12.1393C14.7119 12.1233 14.7984 12.0896 14.8759 12.0401C14.9535 11.9907 15.0205 11.9265 15.0733 11.8511C15.126 11.7758 15.1634 11.6908 15.1832 11.601C15.2031 11.5112 15.2051 11.4184 15.1891 11.3278C15.1731 11.2373 15.1394 11.1508 15.09 11.0732C15.0406 10.9957 14.9764 10.9286 14.901 10.8759Z" fill="#FFDC5D"/>
<path d="M8.26801 13.9644C8.23301 14.0979 8.16451 14.2134 8.07351 14.3049L7.57151 14.8029C7.47939 14.8956 7.36462 14.9627 7.23859 14.9974C7.11256 15.0322 6.97964 15.0334 6.85301 15.0009C6.72518 14.9676 6.60841 14.9012 6.51451 14.8083C6.42061 14.7154 6.3529 14.5993 6.31825 14.4719C6.28359 14.3444 6.28321 14.21 6.31715 14.0824C6.35108 13.9547 6.41813 13.8383 6.51151 13.7449L7.01351 13.2469C7.10563 13.1541 7.22039 13.087 7.34642 13.0523C7.47246 13.0176 7.60538 13.0164 7.73201 13.0489C7.82733 13.0738 7.9168 13.1172 7.99533 13.1767C8.07386 13.2362 8.13989 13.3106 8.18967 13.3956C8.23944 13.4806 8.27198 13.5746 8.28542 13.6722C8.29886 13.7698 8.29295 13.8691 8.26801 13.9644ZM2.99601 11.5039L3.74751 10.7554C3.83344 10.6696 3.89724 10.5642 3.93343 10.4482C3.96962 10.3323 3.97712 10.2093 3.95528 10.0899C3.93345 9.9704 3.88293 9.85802 3.80806 9.7624C3.7332 9.66677 3.63624 9.59075 3.52551 9.54088C3.38679 9.47849 3.23235 9.45991 3.08279 9.4876C2.93323 9.5153 2.79568 9.58796 2.68851 9.69588L1.93701 10.4444C1.8511 10.5302 1.78732 10.6357 1.75117 10.7516C1.71501 10.8676 1.70755 10.9906 1.72944 11.11C1.75133 11.2295 1.8019 11.3419 1.87682 11.4375C1.95173 11.5331 2.04874 11.6091 2.15951 11.6589C2.29823 11.7208 2.45249 11.7391 2.60186 11.7115C2.75123 11.6838 2.88868 11.6114 2.99601 11.5039ZM5.59801 11.5299C5.67163 11.4611 5.73065 11.3783 5.77156 11.2863C5.81246 11.1942 5.83441 11.0949 5.83609 10.9942C5.83777 10.8935 5.81915 10.7935 5.78134 10.7001C5.74353 10.6068 5.68731 10.522 5.61602 10.4508C5.54474 10.3797 5.45985 10.3236 5.36643 10.286C5.273 10.2484 5.17296 10.2299 5.07226 10.2318C4.97156 10.2337 4.87227 10.2558 4.78031 10.2969C4.68835 10.338 4.6056 10.3971 4.53701 10.4709L3.03601 11.9699C2.96239 12.0386 2.90337 12.1215 2.86246 12.2135C2.82156 12.3055 2.79961 12.4049 2.79793 12.5056C2.79625 12.6063 2.81487 12.7063 2.85268 12.7996C2.89049 12.893 2.94671 12.9778 3.01799 13.0489C3.08928 13.1201 3.17417 13.1761 3.26759 13.2138C3.36101 13.2514 3.46106 13.2698 3.56176 13.268C3.66246 13.2661 3.76175 13.244 3.85371 13.2029C3.94567 13.1618 4.02842 13.1026 4.09701 13.0289L5.59801 11.5299ZM6.72301 13.0299C6.82423 12.9284 6.89427 12.8001 6.92485 12.6601C6.95543 12.5202 6.94526 12.3743 6.89555 12.2399C6.84584 12.1055 6.75867 11.9882 6.64436 11.9018C6.53004 11.8154 6.39337 11.7635 6.25051 11.7524C6.14264 11.7443 6.0343 11.7598 5.93301 11.7977C5.83173 11.8357 5.73993 11.8953 5.66401 11.9724L4.66151 12.9699C4.56013 13.0713 4.48995 13.1996 4.45928 13.3397C4.42862 13.4798 4.43874 13.6257 4.48847 13.7602C4.53819 13.8947 4.62543 14.0121 4.73984 14.0985C4.85425 14.185 4.99105 14.2368 5.13401 14.2479C5.36151 14.2659 5.57101 14.1774 5.72051 14.0279L6.72301 13.0299ZM15.0005 10.9614L15.314 10.6904L11.8575 5.26538L5.72251 6.25788C5.62493 6.27436 5.53156 6.30989 5.44772 6.36246C5.36388 6.41502 5.29122 6.48359 5.23388 6.56424C5.17654 6.64489 5.13564 6.73604 5.11353 6.83249C5.09142 6.92894 5.08852 7.02881 5.10501 7.12638C5.43401 8.47388 8.10651 7.47288 9.28251 6.82588L15.0005 10.9614Z" fill="#EF9645"/>
<path d="M8.26801 13.4644C8.23301 13.5979 8.16451 13.7134 8.07351 13.8049L7.57151 14.3029C7.47939 14.3957 7.36462 14.4627 7.23859 14.4975C7.11256 14.5322 6.97964 14.5334 6.85301 14.5009C6.72518 14.4676 6.60841 14.4012 6.51451 14.3083C6.42061 14.2154 6.3529 14.0993 6.31825 13.9719C6.28359 13.8444 6.28321 13.7101 6.31715 13.5824C6.35108 13.4548 6.41813 13.3383 6.51151 13.2449L7.01351 12.7469C7.10563 12.6542 7.22039 12.5871 7.34642 12.5523C7.47246 12.5176 7.60538 12.5164 7.73201 12.5489C7.82733 12.5738 7.9168 12.6172 7.99533 12.6767C8.07386 12.7362 8.13989 12.8106 8.18967 12.8956C8.23944 12.9806 8.27198 13.0746 8.28542 13.1722C8.29886 13.2698 8.29295 13.3691 8.26801 13.4644ZM2.99601 11.0039L3.74751 10.2554C3.83344 10.1696 3.89724 10.0642 3.93343 9.94826C3.96962 9.83234 3.97712 9.70936 3.95528 9.58989C3.93345 9.47043 3.88293 9.35805 3.80806 9.26243C3.7332 9.1668 3.63624 9.09078 3.52551 9.04091C3.38672 8.97888 3.23236 8.96048 3.08289 8.98816C2.93341 9.01584 2.79588 9.08829 2.68851 9.19591L1.93701 9.94441C1.8511 10.0303 1.78732 10.1357 1.75117 10.2517C1.71501 10.3676 1.70755 10.4906 1.72944 10.6101C1.75133 10.7295 1.8019 10.8419 1.87682 10.9375C1.95173 11.0331 2.04874 11.1091 2.15951 11.1589C2.29823 11.2208 2.45249 11.2392 2.60186 11.2115C2.75123 11.1838 2.88868 11.1114 2.99601 11.0039ZM5.59801 11.0299C5.67163 10.9612 5.73065 10.8783 5.77156 10.7863C5.81246 10.6942 5.83441 10.5949 5.83609 10.4942C5.83777 10.3935 5.81915 10.2935 5.78134 10.2001C5.74353 10.1068 5.68731 10.022 5.61602 9.95086C5.54474 9.87971 5.45985 9.82365 5.36643 9.78601C5.273 9.74838 5.17296 9.72995 5.07226 9.73182C4.97156 9.73369 4.87227 9.75583 4.78031 9.7969C4.68835 9.83798 4.6056 9.89716 4.53701 9.97091L3.03601 11.4699C2.96239 11.5386 2.90337 11.6215 2.86246 11.7135C2.82156 11.8056 2.79961 11.9049 2.79793 12.0056C2.79625 12.1063 2.81487 12.2063 2.85268 12.2997C2.89049 12.393 2.94671 12.4778 3.01799 12.549C3.08928 12.6201 3.17417 12.6762 3.26759 12.7138C3.36101 12.7514 3.46106 12.7699 3.56176 12.768C3.66246 12.7661 3.76175 12.744 3.85371 12.7029C3.94567 12.6618 4.02842 12.6027 4.09701 12.5289L5.59801 11.0299ZM6.72301 12.5299C6.82423 12.4285 6.89427 12.3002 6.92485 12.1602C6.95543 12.0202 6.94526 11.8744 6.89555 11.74C6.84584 11.6056 6.75867 11.4882 6.64436 11.4018C6.53004 11.3154 6.39337 11.2636 6.25051 11.2524C6.14264 11.2443 6.0343 11.2598 5.93301 11.2978C5.83173 11.3358 5.73993 11.3954 5.66401 11.4724L4.66151 12.4699C4.56013 12.5713 4.48995 12.6997 4.45928 12.8397C4.42862 12.9798 4.43874 13.1257 4.48847 13.2602C4.53819 13.3947 4.62543 13.5121 4.73984 13.5986C4.85425 13.685 4.99105 13.7368 5.13401 13.7479C5.36151 13.7659 5.57101 13.6774 5.72051 13.5279L6.72301 12.5299ZM17.5015 8.80191C17.6339 8.68749 17.7204 8.52905 17.7451 8.35583C17.7699 8.18261 17.7311 8.00629 17.636 7.85941L17.6345 7.85691L15.901 4.59641C15.8093 4.4503 15.6698 4.34052 15.5062 4.28581C15.3426 4.23109 15.1651 4.23484 15.004 4.29641C14.008 4.68191 12.917 5.12491 11.858 4.76491L11.309 4.57641C10.335 4.23891 9.27601 3.84341 8.30901 4.42941C7.96151 4.63391 7.44001 4.99591 7.10351 5.21941C6.68759 5.49667 6.21638 5.68024 5.72251 5.75741C5.62473 5.77345 5.5311 5.80871 5.44703 5.86115C5.36295 5.91359 5.2901 5.98217 5.23269 6.06292C5.17527 6.14368 5.13442 6.23501 5.11251 6.33164C5.0906 6.42827 5.08805 6.52829 5.10501 6.62591C5.41151 7.88191 7.75501 7.07991 9.02401 6.44141C9.10325 6.40175 9.19184 6.38456 9.28016 6.3917C9.36849 6.39884 9.45317 6.43004 9.52501 6.48191L15.317 10.6899L17.5015 8.80191Z" fill="#FFCC4D"/>
</svg>
