<svg width="18" height="18" viewBox="0 0 18 18" fill="none" xmlns="http://www.w3.org/2000/svg">
<path d="M2.5 11.5H15.5V15H2.5V11.5Z" fill="#D1D3D4"/>
<path d="M0 18H18L16 14.5H2L0 18Z" fill="#D99E82"/>
<path d="M15 10H3L0.5 12H17.5L15 10Z" fill="#66757F"/>
<path d="M9.00002 4.94092L4.88202 6.99992H13.118L9.00002 4.94092Z" fill="#D1D3D4"/>
<path d="M15 7L14.5 4.5H3.5L3 7L1 8.5H17L15 7ZM9 4.941L13.118 7H4.882L9 4.941Z" fill="#66757F"/>
<path d="M3 8.5H15V10H3V8.5ZM12 4.5V2.5H6V4.5H5V5.5H13V4.5H12Z" fill="#D1D3D4"/>
<path d="M6 1H12V2L13 3H5L6 2V1Z" fill="#66757F"/>
<path d="M11.5 0V0.5H6.5V0H6V1H12V0H11.5Z" fill="#99AAB5"/>
<path d="M15 7.38208L12.4475 6.10558L9.4475 4.60558L9 4.38208L8.5525 4.60558L5.5525 6.10558L3 7.38208V8.00008H15V7.38208ZM6 7.00008L9 5.50008L12 7.00008H6Z" fill="#66757F"/>
<path d="M2.5 13.5H15.5V14.5H2.5V13.5Z" fill="#6D6E71"/>
</svg>
