<svg width="18" height="18" viewBox="0 0 18 18" fill="none" xmlns="http://www.w3.org/2000/svg">
<path d="M15 13C15 13.5304 14.7893 14.0391 14.4142 14.4142C14.0391 14.7893 13.5304 15 13 15H2C1.46957 15 0.960859 14.7893 0.585786 14.4142C0.210714 14.0391 0 13.5304 0 13V2C0 1.46957 0.210714 0.960859 0.585786 0.585786C0.960859 0.210714 1.46957 0 2 0L13 0C13.5304 0 14.0391 0.210714 14.4142 0.585786C14.7893 0.960859 15 1.46957 15 2V13Z" fill="#CCD6DC"/>
<path d="M14 13C14 13.2652 13.8946 13.5196 13.7071 13.7071C13.5196 13.8946 13.2652 14 13 14H2C1.73478 14 1.48043 13.8946 1.29289 13.7071C1.10536 13.5196 1 13.2652 1 13V2C1 1.73478 1.10536 1.48043 1.29289 1.29289C1.48043 1.10536 1.73478 1 2 1H13C13.2652 1 13.5196 1.10536 13.7071 1.29289C13.8946 1.48043 14 1.73478 14 2V13Z" fill="#F5F8FA"/>
<path d="M3 13C2.86739 13 2.74021 12.9473 2.64645 12.8536C2.55268 12.7598 2.5 12.6326 2.5 12.5V6.5C2.5 6.36739 2.55268 6.24021 2.64645 6.14645C2.74021 6.05268 2.86739 6 3 6C3.13261 6 3.25979 6.05268 3.35355 6.14645C3.44732 6.24021 3.5 6.36739 3.5 6.5V12.5C3.5 12.6326 3.44732 12.7598 3.35355 12.8536C3.25979 12.9473 3.13261 13 3 13Z" fill="#50A5E6"/>
<path d="M5 13C4.86739 13 4.74021 12.9473 4.64645 12.8536C4.55268 12.7598 4.5 12.6326 4.5 12.5V4C4.5 3.86739 4.55268 3.74021 4.64645 3.64645C4.74021 3.55268 4.86739 3.5 5 3.5C5.13261 3.5 5.25979 3.55268 5.35355 3.64645C5.44732 3.74021 5.5 3.86739 5.5 4V12.5C5.5 12.6326 5.44732 12.7598 5.35355 12.8536C5.25979 12.9473 5.13261 13 5 13Z" fill="#77B255"/>
<path d="M18 18V15.75C18 14.093 16.2195 13 14.5625 13H8.5625C6.906 13 5 14.093 5 15.75V18H18Z" fill="#226798"/>
<path d="M14.125 13L12.534 18H10.4885L9.125 13" fill="#F4F7F9"/>
<path d="M9.5 13H8.75L8.25 15.75L9.75 16.25L9.5 18H11.25L9.5 13ZM13.75 13H14.5L14.75 15.75L13.25 16.25L13.5 18H11.75L13.75 13Z" fill="#3A87C2"/>
<path d="M11.6 1.9895C13.652 1.9895 17.0735 3.016 17.0735 7.463C17.0735 11.9105 17.0735 12.937 16.047 12.937C15.0205 12.937 13.652 11.9105 11.5995 11.9105C9.54652 11.9105 8.20702 12.937 7.15152 12.937C6.00802 12.937 6.12502 8.8315 6.12502 7.463C6.12602 3.0155 9.54752 1.9895 11.6 1.9895Z" fill="#FAAA35"/>
<path d="M9.8775 13.0001C10.3775 13.9911 11.2735 15.2501 11.6275 15.2501C11.9815 15.2501 12.8835 13.9756 13.3775 13.0001V11.2046H9.8775V13.0001Z" fill="#FFDB5E"/>
<path d="M9.8775 12.027C10.365 12.578 10.97 12.727 11.627 12.727C12.284 12.727 12.89 12.578 13.3775 12.027V10.6265H9.8775V12.027Z" fill="#F8C954"/>
<path d="M7.49451 7.31348C7.49451 4.39648 9.33251 2.03198 11.6 2.03198C13.8665 2.03198 15.7045 4.39648 15.7045 7.31348C15.7045 10.23 13.8665 12.456 11.6 12.456C9.33251 12.456 7.49451 10.23 7.49451 7.31348Z" fill="#FFDB5E"/>
<path d="M11.6 11.2261C10.797 11.2261 10.3765 10.8291 10.3315 10.7836C10.2721 10.7188 10.2399 10.6337 10.2415 10.5459C10.2431 10.458 10.2784 10.3742 10.3402 10.3116C10.4019 10.2491 10.4853 10.2126 10.5731 10.2098C10.6609 10.207 10.7464 10.2381 10.812 10.2966C10.8295 10.3126 11.0875 10.5421 11.6 10.5421C12.119 10.5421 12.3775 10.3056 12.388 10.2961C12.4537 10.2346 12.5407 10.2012 12.6307 10.2029C12.7206 10.2047 12.8063 10.2416 12.8695 10.3056C12.9995 10.4401 12.9995 10.6511 12.8675 10.7831C12.823 10.8291 12.403 11.2261 11.6 11.2261Z" fill="#DE2032"/>
<path d="M12.0455 9.70459H11.2005C11.1444 9.70459 11.0906 9.68231 11.051 9.64264C11.0113 9.60298 10.989 9.54918 10.989 9.49309V9.41659C10.989 9.30009 11.0835 9.20459 11.2005 9.20459H12.0455C12.162 9.20459 12.2575 9.29959 12.2575 9.41659V9.49309C12.2574 9.54923 12.235 9.60302 12.1952 9.64267C12.1555 9.68232 12.1017 9.70459 12.0455 9.70459Z" fill="#C1694F"/>
<path d="M13.314 8.39791C13.2019 8.39738 13.0945 8.35258 13.0153 8.27325C12.9361 8.19393 12.8914 8.08652 12.891 7.97441V7.55191C12.891 7.31941 13.0815 7.12891 13.314 7.12891C13.5465 7.12891 13.737 7.31941 13.737 7.55191V7.97441C13.7366 8.08652 13.6919 8.19393 13.6127 8.27325C13.5335 8.35258 13.4261 8.39738 13.314 8.39791ZM9.93148 8.39791C9.81937 8.39738 9.71201 8.35258 9.63278 8.27325C9.55355 8.19393 9.50888 8.08652 9.50848 7.97441V7.55191C9.50848 7.31941 9.69898 7.12891 9.93148 7.12891C10.0436 7.1293 10.151 7.17398 10.2303 7.25321C10.3097 7.33243 10.3545 7.4398 10.355 7.55191V7.97441C10.3546 8.0866 10.3098 8.19409 10.2305 8.27343C10.1512 8.35277 10.0437 8.39751 9.93148 8.39791Z" fill="#662213"/>
<path d="M6.49001 8.9545C6.47951 8.4545 6.46801 8.8425 6.46801 8.722C6.46801 7.011 7.49451 8.969 7.49451 7.7505C7.49451 6.532 8.17851 6.409 8.86251 5.725C9.20501 5.3825 9.88901 4.712 9.88901 4.712C9.88901 4.712 11.5995 5.7455 12.968 5.7455C14.336 5.7455 15.705 6.433 15.705 7.8015C15.705 9.17 16.7315 7.0095 16.7315 8.72C16.7315 8.842 16.7205 8.4545 16.7115 8.9545H17.071C17.074 7.9545 17.074 7.9925 17.074 7.3535C17.074 2.9065 13.653 1.25 11.6 1.25C9.54801 1.25 6.12651 2.8785 6.12651 7.326C6.12651 7.7225 6.11651 7.9545 6.13051 8.9545H6.49001Z" fill="#FAAA35"/>
<path d="M16.544 7.42258C16.544 8.14658 16.1775 8.73358 15.7245 8.73358C15.272 8.73358 14.905 8.14658 14.905 7.42258C14.905 6.69858 15.2715 6.11108 15.7245 6.11108C16.1775 6.11108 16.544 6.69858 16.544 7.42258ZM8.34951 7.42258C8.34951 8.14658 7.98251 8.73358 7.53001 8.73358C7.07751 8.73358 6.71051 8.14658 6.71051 7.42258C6.71051 6.69858 7.07751 6.11108 7.53001 6.11108C7.98251 6.11108 8.34951 6.69858 8.34951 7.42258Z" fill="#FFDB5E"/>
</svg>
