<svg width="18" height="18" viewBox="0 0 18 18" fill="none" xmlns="http://www.w3.org/2000/svg">
<path d="M18 16C18 16.5304 17.7893 17.0391 17.4142 17.4142C17.0391 17.7893 16.5304 18 16 18H2C1.46957 18 0.960859 17.7893 0.585786 17.4142C0.210714 17.0391 0 16.5304 0 16V2C0 1.46957 0.210714 0.960859 0.585786 0.585786C0.960859 0.210714 1.46957 0 2 0L16 0C16.5304 0 17.0391 0.210714 17.4142 0.585786C17.7893 0.960859 18 1.46957 18 2V16Z" fill="#F4900C"/>
<path d="M13.4465 4.83459C14.2135 4.83459 14.5645 5.13359 14.5645 5.83559V7.61659C14.5645 7.86359 14.3825 8.00659 14.0705 8.00659C13.7845 8.00659 13.5765 7.86359 13.5765 7.61659V6.04359C13.5765 5.75759 13.4465 5.69259 13.1605 5.69259H4.78797C4.52797 5.69259 4.39797 5.75759 4.39797 6.04359V7.61659C4.39797 7.86359 4.20297 8.00659 3.90397 8.00659C3.60497 8.00659 3.40997 7.86359 3.40997 7.61659V5.83559C3.40997 5.13359 3.74797 4.83459 4.52797 4.83459H5.84097C5.6233 4.46877 5.38906 4.11306 5.13897 3.76859C5.08697 3.69059 5.06097 3.62559 5.06097 3.56059C5.06097 3.41759 5.17797 3.27459 5.34697 3.20959C5.43797 3.17059 5.52897 3.14459 5.60697 3.14459C5.76297 3.14459 5.89297 3.20959 5.99697 3.35259C6.26997 3.74259 6.63447 4.34059 6.88097 4.83459H8.70097C8.51488 4.40991 8.30212 3.99742 8.06397 3.59959C8.03025 3.54485 8.01226 3.48188 8.01197 3.41759C8.01197 3.26159 8.11597 3.11859 8.31097 3.06659C8.38897 3.04059 8.46697 3.02759 8.53197 3.02759C8.70097 3.02759 8.83097 3.09259 8.93497 3.26159C9.18197 3.65159 9.46797 4.27559 9.70197 4.83459H11.119C11.47 4.32759 11.782 3.80759 11.9775 3.37859C12.081 3.17059 12.2245 3.09259 12.406 3.09259C12.484 3.09259 12.5621 3.10559 12.6405 3.13159C12.861 3.19659 12.965 3.32659 12.965 3.48259C12.965 3.56059 12.939 3.63859 12.9 3.71659C12.731 4.05459 12.484 4.44459 12.211 4.83459H13.4465ZM12.6925 11.0881C13.4205 11.0881 13.7845 11.3871 13.7845 12.1021V13.7791C13.7845 14.4946 13.4205 14.7931 12.6925 14.7931H5.28247C4.55447 14.7931 4.18997 14.4941 4.18997 13.7791V12.1021C4.18997 11.3866 4.55447 11.0881 5.28247 11.0881H7.60947C7.81747 10.7236 7.99947 10.3211 8.16847 9.93059H6.36147C5.55547 9.93059 5.24347 9.67109 5.24347 8.96859V7.64259C5.24347 6.92759 5.55547 6.68059 6.36147 6.68059H11.601C12.4065 6.68059 12.7185 6.92759 12.7185 7.64259V8.96859C12.7185 9.67059 12.4065 9.93059 11.601 9.93059H9.19547C9.03947 10.3341 8.85747 10.7236 8.62347 11.0881H12.6925ZM12.3935 13.9091C12.6795 13.9091 12.7965 13.8436 12.7965 13.5841V12.2711C12.7965 12.0106 12.68 11.9461 12.3935 11.9461H5.58097C5.29497 11.9461 5.17797 12.0111 5.17797 12.2711V13.5841C5.17797 13.8441 5.29497 13.9091 5.58097 13.9091H12.3935ZM11.3795 9.12509C11.64 9.12509 11.7565 9.06009 11.7565 8.80009V7.82509C11.7565 7.57809 11.64 7.51309 11.3795 7.51309H6.58197C6.30897 7.51309 6.20497 7.57809 6.20497 7.82509V8.80009C6.20497 9.06009 6.30897 9.12509 6.58197 9.12509H11.3795Z" fill="white"/>
</svg>
