<svg width="45" height="45" viewBox="0 0 45 45" fill="none" xmlns="http://www.w3.org/2000/svg">
<rect x="2" y="2" width="41" height="41" rx="11" stroke="white" stroke-width="4"/>
<path d="M18.2273 29.7727C17.7727 31.5909 17.0909 33.1818 16.1818 34.5455C12.5455 33.1818 9.81818 31.3636 8 29.0909C8 22.7273 9.36364 17.2727 12.0909 12.7273C14.3636 11.3636 16.6364 10.4545 18.9091 10L20.2727 12.7273C22.0909 12.2727 23.9091 12.2727 25.7273 12.7273L27.0909 10C29.3636 10.4545 31.6364 11.3636 33.9091 12.7273C36.6364 17.2727 38 22.7273 38 29.0909C36.1818 31.3636 33.4545 33.1818 29.8182 34.5455C28.9091 33.1818 28.2273 31.5909 27.7727 29.7727M16.1818 29.0909C20.7273 30.9091 25.2727 30.9091 29.8182 29.0909" stroke="white" stroke-width="2" stroke-linecap="round" stroke-linejoin="round"/>
<path d="M17.5455 23.6363C18.2986 23.6363 18.9092 23.0258 18.9092 22.2727C18.9092 21.5196 18.2986 20.9091 17.5455 20.9091C16.7924 20.9091 16.1819 21.5196 16.1819 22.2727C16.1819 23.0258 16.7924 23.6363 17.5455 23.6363Z" stroke="white" stroke-width="2" stroke-linecap="round" stroke-linejoin="round"/>
<path d="M28.4545 23.6363C29.2076 23.6363 29.8181 23.0258 29.8181 22.2727C29.8181 21.5196 29.2076 20.9091 28.4545 20.9091C27.7013 20.9091 27.0908 21.5196 27.0908 22.2727C27.0908 23.0258 27.7013 23.6363 28.4545 23.6363Z" stroke="white" stroke-width="2" stroke-linecap="round" stroke-linejoin="round"/>
</svg>
