<svg width="45" height="45" viewBox="0 0 45 45" fill="none" xmlns="http://www.w3.org/2000/svg">
<path d="M32.7084 10.8333H12.2917C11.1314 10.8333 10.0186 11.2943 9.19816 12.1148C8.37768 12.9352 7.91675 14.048 7.91675 15.2083V29.7917C7.91675 30.952 8.37768 32.0648 9.19816 32.8853C10.0186 33.7057 11.1314 34.1667 12.2917 34.1667H32.7084C33.8687 34.1667 34.9815 33.7057 35.802 32.8853C36.6225 32.0648 37.0834 30.952 37.0834 29.7917V15.2083C37.0834 14.048 36.6225 12.9352 35.802 12.1148C34.9815 11.2943 33.8687 10.8333 32.7084 10.8333ZM32.1105 13.75L23.5355 22.325C23.3999 22.4617 23.2386 22.5702 23.0609 22.6442C22.8832 22.7183 22.6926 22.7564 22.5001 22.7564C22.3076 22.7564 22.117 22.7183 21.9392 22.6442C21.7615 22.5702 21.6002 22.4617 21.4647 22.325L12.8897 13.75H32.1105ZM34.1668 29.7917C34.1668 30.1784 34.0131 30.5494 33.7396 30.8229C33.4661 31.0964 33.0952 31.25 32.7084 31.25H12.2917C11.905 31.25 11.534 31.0964 11.2606 30.8229C10.9871 30.5494 10.8334 30.1784 10.8334 29.7917V15.8063L19.4084 24.3813C20.2287 25.2006 21.3407 25.6607 22.5001 25.6607C23.6595 25.6607 24.7714 25.2006 25.5917 24.3813L34.1668 15.8063V29.7917Z" fill="white"/>
<rect x="2" y="2" width="41" height="41" rx="11" stroke="white" stroke-width="4"/>
</svg>
