<svg width="45" height="45" viewBox="0 0 45 45" fill="none" xmlns="http://www.w3.org/2000/svg">
<path d="M29.9999 22.5C29.9999 20.7649 29.3982 19.0835 28.2974 17.7422C27.1967 16.401 25.6649 15.4829 23.9632 15.1444C22.2614 14.8059 20.4949 15.0679 18.9647 15.8857C17.4344 16.7036 16.2351 18.0268 15.571 19.6297C14.9069 21.2327 14.8192 23.0164 15.3227 24.6768C15.8262 26.3373 16.8899 27.7717 18.3325 28.7359C19.7751 29.7 21.5073 30.1341 23.2341 29.9642C24.9609 29.7944 26.5753 29.0311 27.8024 27.8044C28.4992 27.1313 29.0529 26.3246 29.4305 25.4325C29.8081 24.5404 30.0018 23.5812 29.9999 22.6125L29.9981 22.4944L29.9999 22.5ZM34.0499 22.5C34.0409 25.1596 33.1106 27.7339 31.4173 29.7848C29.724 31.8357 27.3723 33.2365 24.7625 33.7488C22.1526 34.2611 19.4459 33.8532 17.103 32.5945C14.7601 31.3358 12.9257 29.3042 11.912 26.8453C10.8983 24.3864 10.768 21.6523 11.5433 19.1081C12.3185 16.564 13.9513 14.3671 16.1639 12.8913C18.3766 11.4155 21.0322 10.752 23.6789 11.0138C26.3256 11.2755 28.7999 12.4463 30.6806 14.3269C31.7487 15.3631 32.5977 16.6035 33.1768 17.9744C33.756 19.3453 34.0535 20.8187 34.0518 22.3069L34.0499 22.5112V22.5ZM37.2131 10.4887V10.4925C37.2133 11.1172 36.9969 11.7226 36.6007 12.2056C36.2046 12.6886 35.6532 13.0193 35.0406 13.1413C34.428 13.2634 33.792 13.1692 33.241 12.8749C32.69 12.5806 32.2581 12.1044 32.0189 11.5273C31.7797 10.9503 31.7479 10.3081 31.9291 9.71029C32.1103 9.11247 32.4931 8.59596 33.0124 8.24878C33.5318 7.9016 34.1554 7.74523 34.7771 7.80631C35.3987 7.86739 35.98 8.14214 36.4218 8.58375C36.9018 9.05437 37.1999 9.71062 37.1999 10.4362V10.4906L37.2131 10.4887ZM22.5131 4.03875L20.2724 4.02375C18.9149 4.01375 17.8843 4.01375 17.1806 4.02375C16.4768 4.03375 15.5343 4.06312 14.3531 4.11187C13.2562 4.14937 12.2156 4.25812 11.1974 4.43062L11.3343 4.41187C10.5374 4.54312 9.83056 4.73062 9.15368 4.98L9.23431 4.95375C8.27823 5.33842 7.40879 5.91051 6.67717 6.63633C5.94556 7.36214 5.36658 8.22701 4.97431 9.18L4.95556 9.23062C4.71515 9.88942 4.53688 10.5693 4.42306 11.2612L4.41368 11.3306C4.24826 12.316 4.14867 13.3114 4.11556 14.31L4.11368 14.3494C4.06493 15.5319 4.03556 16.4744 4.02556 17.1769C4.01556 17.8794 4.01556 18.91 4.02556 20.2687C4.03556 21.6275 4.04056 22.3744 4.04056 22.5094C4.04056 22.6444 4.03556 23.3912 4.02556 24.75C4.01556 26.1087 4.01556 27.1394 4.02556 27.8419C4.03556 28.5444 4.06493 29.4869 4.11368 30.6694C4.15118 31.7662 4.25993 32.8069 4.43243 33.825L4.41368 33.6881C4.54493 34.485 4.73243 35.1919 4.98181 35.8687L4.95556 35.7881C5.34023 36.7442 5.91232 37.6136 6.63814 38.3453C7.36395 39.0769 8.22882 39.6558 9.18181 40.0481L9.23243 40.0669C9.82868 40.29 10.5356 40.4775 11.2631 40.5994L11.3324 40.6087C12.2118 40.7625 13.2524 40.8712 14.3099 40.9069L14.3493 40.9087C15.5318 40.9575 16.4743 40.9869 17.1768 40.9969C17.8793 41.0069 18.9099 41.0069 20.2687 40.9969L22.4962 40.9519L24.7368 40.9669C26.0943 40.9769 27.1249 40.9769 27.8287 40.9669C28.5324 40.9569 29.4749 40.9275 30.6562 40.8787C31.7531 40.8412 32.7937 40.7325 33.8118 40.56L33.6749 40.5787C34.4718 40.4475 35.1787 40.26 35.8556 40.0106L35.7749 40.0369C36.731 39.6522 37.6005 39.0801 38.3321 38.3543C39.0637 37.6285 39.6427 36.7636 40.0349 35.8106L40.0537 35.76C40.2768 35.1637 40.4643 34.4569 40.5862 33.7294L40.5956 33.66C40.7493 32.7806 40.8581 31.74 40.8937 30.6825L40.8956 30.6431C40.9443 29.4606 40.9737 28.5181 40.9837 27.8156C40.9937 27.1131 40.9937 26.0825 40.9837 24.7237C40.9737 23.365 40.9687 22.6181 40.9687 22.4831C40.9687 22.3481 40.9737 21.6012 40.9837 20.2425C40.9937 18.8837 40.9937 17.8531 40.9837 17.1506C40.9737 16.4481 40.9443 15.5056 40.8956 14.3231C40.8581 13.2262 40.7493 12.1856 40.5768 11.1675L40.5956 11.3044C40.4761 10.5611 40.2859 9.83086 40.0274 9.12375L40.0537 9.20437C39.669 8.24829 39.0969 7.37885 38.3711 6.64724C37.6453 5.91563 36.7804 5.33664 35.8274 4.94437L35.7768 4.92562C35.118 4.68522 34.4382 4.50694 33.7462 4.39312L33.6768 4.38375C32.692 4.21841 31.6973 4.11881 30.6993 4.08562L30.6599 4.08375C29.4774 4.035 28.5349 4.00562 27.8324 3.99562C27.1299 3.98562 26.0993 3.98562 24.7406 3.99562L22.5131 4.03875ZM44.9999 22.5C44.9999 26.9725 44.9499 30.0681 44.8499 31.7869C44.9386 33.5287 44.6602 35.2697 44.033 36.8971C43.4057 38.5245 42.4435 40.002 41.2088 41.2337C39.974 42.4655 38.4942 43.4241 36.8653 44.0474C35.2364 44.6707 33.4947 44.9447 31.7531 44.8519L31.7831 44.8537C30.0643 44.9537 26.9687 45.0037 22.4962 45.0037C18.0237 45.0037 14.9281 44.9537 13.2093 44.8537C11.4675 44.9424 9.72644 44.664 8.09904 44.0368C6.47165 43.4095 4.9942 42.4473 3.76244 41.2126C2.53069 39.9778 1.5721 38.498 0.948814 36.8691C0.325523 35.2402 0.0514339 33.4985 0.144307 31.7569L0.142432 31.7869C0.0424316 30.0681 -0.00756836 26.9725 -0.00756836 22.5C-0.00756836 18.0275 0.0424316 14.9319 0.142432 13.2131C0.0538031 11.4713 0.332136 9.73025 0.959393 8.10286C1.58665 6.47546 2.54884 4.99802 3.7836 3.76626C5.01836 2.5345 6.49815 1.57592 8.12707 0.952628C9.75599 0.329338 11.4977 0.0552486 13.2393 0.148121L13.2093 0.146246C14.9281 0.0462463 18.0237 -0.00375366 22.4962 -0.00375366C26.9687 -0.00375366 30.0643 0.0462463 31.7831 0.146246C33.5249 0.0576178 35.2659 0.335951 36.8933 0.963208C38.5207 1.59047 39.9982 2.55265 41.2299 3.78741C42.4617 5.02218 43.4203 6.50196 44.0435 8.13088C44.6668 9.7598 44.9409 11.5015 44.8481 13.2431L44.8499 13.2131C44.9499 14.9306 44.9999 18.0262 44.9999 22.5Z" fill="white"/>
</svg>
