<svg width="108" height="108" viewBox="0 0 108 108" fill="none" xmlns="http://www.w3.org/2000/svg">
<path d="M27.1216 1.30493C25.2136 1.94843 23.6296 3.18593 22.1446 4.48643C1.95313 23.9129 1.14313 24.7364 1.14313 24.7364C0.0811326 25.7264 -0.0133675 27.1529 0.000132504 28.6019L0.0946325 36.7874C0.0946325 36.7874 9.40963 27.7289 23.3326 14.3324C30.8251 33.8489 38.6551 53.2619 46.3546 72.7154C47.4076 75.6539 44.8741 78.0614 41.6746 81.2744C37.2556 85.5854 28.0216 94.4594 18.5626 106.299H28.0441L50.8456 81.3059C53.0146 78.3269 55.6921 75.4154 54.5536 72.7154L36.6526 26.1269C40.8106 22.5944 44.5861 18.5849 48.4336 14.7374L72.0676 74.0159C73.4311 78.0254 71.2801 81.5939 66.9646 85.4864C61.7986 89.6354 51.1786 99.3149 46.3546 106.69H53.6941C61.3891 98.7794 62.7706 97.7174 71.5321 90.1304C77.4181 84.1274 82.7281 81.0314 79.9516 73.3409L61.3666 26.8784C65.8981 22.4234 70.4251 18.4409 74.7766 14.0444C84.2851 34.9379 90.7921 51.7724 98.7616 74.0294C101.372 81.2609 100.823 81.5984 94.5856 85.5044C84.5596 90.4859 81.4051 93.7574 69.4531 106.474H77.6206C87.6106 97.4384 91.3231 94.2524 103.833 87.6644C108.257 85.1039 108.855 81.8819 107.042 76.8644C101.192 60.5924 88.5196 25.5194 76.8061 1.46693L58.3426 19.3364L51.2821 1.69643C44.6041 6.20993 39.3301 12.5099 33.5971 18.1799L27.1216 1.30493Z" fill="black"/>
</svg>
