<svg width="34" height="34" viewBox="0 0 34 34" fill="none" xmlns="http://www.w3.org/2000/svg">
<path d="M26.239 5.94641H6.90501C5.80623 5.94641 4.75244 6.3829 3.97548 7.15987C3.19852 7.93683 2.76202 8.99061 2.76202 10.0894V23.8994C2.76202 24.9982 3.19852 26.0519 3.97548 26.8289C4.75244 27.6059 5.80623 28.0424 6.90501 28.0424H26.239C27.3378 28.0424 28.3915 27.6059 29.1685 26.8289C29.9455 26.0519 30.382 24.9982 30.382 23.8994V10.0894C30.382 8.99061 29.9455 7.93683 29.1685 7.15987C28.3915 6.3829 27.3378 5.94641 26.239 5.94641ZM25.6728 8.7084L17.5525 16.8287C17.4241 16.9581 17.2714 17.0608 17.1031 17.131C16.9348 17.2011 16.7543 17.2372 16.572 17.2372C16.3897 17.2372 16.2092 17.2011 16.0409 17.131C15.8726 17.0608 15.7199 16.9581 15.5915 16.8287L7.47122 8.7084H25.6728ZM27.62 23.8994C27.62 24.2656 27.4745 24.6169 27.2155 24.8759C26.9565 25.1349 26.6052 25.2804 26.239 25.2804H6.90501C6.53875 25.2804 6.18749 25.1349 5.9285 24.8759C5.66952 24.6169 5.52402 24.2656 5.52402 23.8994V10.6556L13.6443 18.7759C14.4211 19.5517 15.4741 19.9875 16.572 19.9875C17.6699 19.9875 18.7229 19.5517 19.4997 18.7759L27.62 10.6556V23.8994Z" fill="black"/>
</svg>
