<svg width="59" height="59" viewBox="0 0 59 59" fill="none" xmlns="http://www.w3.org/2000/svg">
<circle cx="29.5" cy="29.5" r="29.5" fill="black"/>
<path d="M24.1042 37.9792C23.5904 40.0347 22.8195 41.8333 21.7917 43.375C17.6806 41.8333 14.5973 39.7778 12.5417 37.2083C12.5417 30.0139 14.0834 23.8472 17.1667 18.7083C19.7362 17.1667 22.3056 16.1389 24.8751 15.625L26.4167 18.7083C28.4723 18.1944 30.5279 18.1944 32.5834 18.7083L34.1251 15.625C36.6945 16.1389 39.264 17.1667 41.8334 18.7083C44.9167 23.8472 46.4584 30.0139 46.4584 37.2083C44.4029 39.7778 41.3195 41.8333 37.2084 43.375C36.1806 41.8333 35.4098 40.0347 34.8959 37.9792M21.7917 37.2083C26.9306 39.2639 32.0695 39.2639 37.2084 37.2083" stroke="#FCC0C5" stroke-width="3" stroke-linecap="round" stroke-linejoin="round"/>
<path d="M23.3334 31.0417C24.1849 31.0417 24.8751 30.3515 24.8751 29.5C24.8751 28.6486 24.1849 27.9584 23.3334 27.9584C22.482 27.9584 21.7917 28.6486 21.7917 29.5C21.7917 30.3515 22.482 31.0417 23.3334 31.0417Z" stroke="#FCC0C5" stroke-width="3" stroke-linecap="round" stroke-linejoin="round"/>
<path d="M35.6667 31.0417C36.5181 31.0417 37.2083 30.3515 37.2083 29.5C37.2083 28.6486 36.5181 27.9584 35.6667 27.9584C34.8152 27.9584 34.125 28.6486 34.125 29.5C34.125 30.3515 34.8152 31.0417 35.6667 31.0417Z" stroke="#FCC0C5" stroke-width="3" stroke-linecap="round" stroke-linejoin="round"/>
</svg>
