<svg width="59" height="59" viewBox="0 0 59 59" fill="none" xmlns="http://www.w3.org/2000/svg">
<circle cx="29.5" cy="29.5" r="29.5" fill="black"/>
<path d="M22.675 13.25H36.325C41.525 13.25 45.75 17.475 45.75 22.675V36.325C45.75 38.8247 44.757 41.222 42.9895 42.9895C41.222 44.757 38.8247 45.75 36.325 45.75H22.675C17.475 45.75 13.25 41.525 13.25 36.325V22.675C13.25 20.1753 14.243 17.778 16.0105 16.0105C17.778 14.243 20.1753 13.25 22.675 13.25ZM22.35 16.5C20.7985 16.5 19.3105 17.1163 18.2134 18.2134C17.1163 19.3105 16.5 20.7985 16.5 22.35V36.65C16.5 39.8837 19.1163 42.5 22.35 42.5H36.65C38.2015 42.5 39.6895 41.8837 40.7866 40.7866C41.8837 39.6895 42.5 38.2015 42.5 36.65V22.35C42.5 19.1163 39.8837 16.5 36.65 16.5H22.35ZM38.0312 18.9375C38.57 18.9375 39.0866 19.1515 39.4676 19.5324C39.8485 19.9134 40.0625 20.43 40.0625 20.9688C40.0625 21.5075 39.8485 22.0241 39.4676 22.4051C39.0866 22.786 38.57 23 38.0312 23C37.4925 23 36.9759 22.786 36.5949 22.4051C36.214 22.0241 36 21.5075 36 20.9688C36 20.43 36.214 19.9134 36.5949 19.5324C36.9759 19.1515 37.4925 18.9375 38.0312 18.9375ZM29.5 21.375C31.6549 21.375 33.7215 22.231 35.2452 23.7548C36.769 25.2785 37.625 27.3451 37.625 29.5C37.625 31.6549 36.769 33.7215 35.2452 35.2452C33.7215 36.769 31.6549 37.625 29.5 37.625C27.3451 37.625 25.2785 36.769 23.7548 35.2452C22.231 33.7215 21.375 31.6549 21.375 29.5C21.375 27.3451 22.231 25.2785 23.7548 23.7548C25.2785 22.231 27.3451 21.375 29.5 21.375ZM29.5 24.625C28.2071 24.625 26.9671 25.1386 26.0529 26.0529C25.1386 26.9671 24.625 28.2071 24.625 29.5C24.625 30.7929 25.1386 32.0329 26.0529 32.9471C26.9671 33.8614 28.2071 34.375 29.5 34.375C30.7929 34.375 32.0329 33.8614 32.9471 32.9471C33.8614 32.0329 34.375 30.7929 34.375 29.5C34.375 28.2071 33.8614 26.9671 32.9471 26.0529C32.0329 25.1386 30.7929 24.625 29.5 24.625Z" fill="#FCC0C5"/>
</svg>
