<svg width="45" height="45" viewBox="0 0 45 45" fill="none" xmlns="http://www.w3.org/2000/svg">
<rect x="2" y="2" width="41" height="41" rx="11" stroke="white" stroke-width="4"/>
<path d="M29.7698 24.6875C29.7698 25.2474 29.5474 25.7843 29.1515 26.1802C28.7556 26.576 28.2187 26.7984 27.6588 26.7984C27.099 26.7984 26.5621 26.576 26.1662 26.1802C25.7703 25.7843 25.5479 25.2474 25.5479 24.6875C25.5479 24.1277 25.7703 23.5907 26.1662 23.1948C26.5621 22.799 27.099 22.5766 27.6588 22.5766C28.2187 22.5766 28.7556 22.799 29.1515 23.1948C29.5474 23.5907 29.7698 24.1277 29.7698 24.6875ZM17.3331 26.7977C17.8928 26.7977 18.4295 26.5754 18.8253 26.1796C19.221 25.7839 19.4433 25.2472 19.4433 24.6875C19.4433 24.1278 19.221 23.5911 18.8253 23.1954C18.4295 22.7996 17.8928 22.5773 17.3331 22.5773C16.7734 22.5773 16.2367 22.7996 15.841 23.1954C15.4452 23.5911 15.2229 24.1278 15.2229 24.6875C15.2229 25.2472 15.4452 25.7839 15.841 26.1796C16.2367 26.5754 16.7734 26.7977 17.3331 26.7977ZM17.9062 29.2506C17.6613 29.1065 17.3699 29.0634 17.0937 29.1305C16.8175 29.1975 16.5783 29.3694 16.4266 29.6097C16.275 29.8501 16.2229 30.14 16.2813 30.4182C16.3397 30.6963 16.504 30.9408 16.7396 31.0998L17.2427 31.4177C18.8148 32.4093 20.6355 32.9355 22.4941 32.9355C24.3528 32.9355 26.1735 32.4093 27.7456 31.4177L28.2487 31.1013C28.3703 31.0247 28.4757 30.9248 28.5587 30.8075C28.6417 30.6902 28.7009 30.5577 28.7327 30.4175C28.7645 30.2774 28.7684 30.1323 28.7442 29.9907C28.7199 29.849 28.668 29.7135 28.5914 29.5919C28.5148 29.4703 28.415 29.3649 28.2977 29.2819C28.1804 29.1989 28.0479 29.1397 27.9077 29.1079C27.7676 29.0761 27.6225 29.0722 27.4808 29.0964C27.3392 29.1207 27.2037 29.1726 27.0821 29.2492L26.5789 29.5671C25.3561 30.3384 23.9399 30.7478 22.4941 30.7478C21.0484 30.7478 19.6322 30.3384 18.4094 29.5671L17.9062 29.2506Z" fill="white"/>
<path fill-rule="evenodd" clip-rule="evenodd" d="M34.1083 7.55209C32.8351 7.55209 31.7224 8.25064 31.1362 9.28459L25.8862 8.20689C25.6388 8.15621 25.3814 8.19272 25.1579 8.31021C24.9343 8.42771 24.7583 8.61895 24.6597 8.85147C24.0604 10.2602 23.162 12.3967 22.411 14.2254C22.1456 14.8729 21.8977 15.484 21.6891 16.0119C18.7039 16.1315 15.9389 16.9117 13.677 18.1761C13.3129 17.5655 12.8085 17.0506 12.2057 16.6739C11.6028 16.2973 10.9188 16.0699 10.2104 16.0105C9.50202 15.9511 8.78969 16.0614 8.13249 16.3323C7.47529 16.6033 6.89217 17.027 6.43149 17.5684C5.9708 18.1098 5.64584 18.7532 5.48356 19.4453C5.32127 20.1374 5.32634 20.8582 5.49834 21.5479C5.67034 22.2377 6.00431 22.8765 6.47256 23.4113C6.94081 23.9462 7.52983 24.3617 8.19078 24.6233C7.99633 25.3233 7.89862 26.0481 7.89765 26.7977C7.89765 29.9215 9.66078 32.6485 12.3091 34.5517C14.9604 36.4577 18.5654 37.601 22.4999 37.601C26.4331 37.601 30.0395 36.4577 32.6908 34.5531C35.3391 32.6485 37.1022 29.9215 37.1022 26.7977C37.1022 26.0481 37.0002 25.3219 36.8106 24.6248C37.4713 24.363 38.0601 23.9474 38.5282 23.4126C38.9962 22.8778 39.33 22.2391 39.502 21.5495C39.6739 20.8599 39.6789 20.1392 39.5167 19.4473C39.3544 18.7553 39.0296 18.112 38.569 17.5707C38.1085 17.0294 37.5256 16.6056 36.8686 16.3346C36.2116 16.0636 35.4994 15.9531 34.7912 16.0123C34.0829 16.0714 33.399 16.2986 32.7961 16.6749C32.1932 17.0512 31.6886 17.5658 31.3243 18.1761C29.2433 17.0138 26.7379 16.2598 24.0283 16.0527C24.1566 15.7358 24.2927 15.4033 24.4366 15.0552C25.0462 13.5663 25.7579 11.8688 26.3237 10.53L30.7249 11.4342C30.8143 12.0841 31.0888 12.6945 31.5157 13.1926C31.9426 13.6907 32.5039 14.0554 33.1325 14.243C33.7611 14.4307 34.4304 14.4335 35.0605 14.251C35.6906 14.0685 36.2549 13.7085 36.6859 13.2139C37.1169 12.7194 37.3964 12.1112 37.4911 11.4621C37.5858 10.8129 37.4916 10.1503 37.2198 9.55321C36.948 8.95616 36.51 8.44998 35.9583 8.09513C35.4065 7.74028 34.7643 7.55176 34.1083 7.55209ZM32.8804 10.9675C32.8804 10.6417 33.0098 10.3291 33.2402 10.0987C33.4706 9.86831 33.7831 9.73886 34.109 9.73886C34.4349 9.73886 34.7474 9.86831 34.9778 10.0987C35.2082 10.3291 35.3376 10.6417 35.3376 10.9675C35.3376 11.2934 35.2082 11.6059 34.9778 11.8363C34.7474 12.0667 34.4349 12.1962 34.109 12.1962C33.7831 12.1962 33.4706 12.0667 33.2402 11.8363C33.0098 11.6059 32.8804 11.2934 32.8804 10.9675ZM22.4999 18.1833C22.7236 18.1833 22.9472 18.1877 23.1708 18.1965C23.1671 18.2424 23.1613 18.2882 23.1533 18.3336L23.1504 18.3408L23.1547 18.3263L23.197 18.1979C26.4404 18.3233 29.3235 19.3208 31.4133 20.8229C33.6547 22.4329 34.9147 24.5606 34.9147 26.7992C34.9147 29.0392 33.6533 31.1669 31.4147 32.7783C29.1747 34.3854 26.0277 35.415 22.4999 35.415C18.9722 35.415 15.8252 34.3854 13.5866 32.7769C11.3452 31.1669 10.0852 29.0392 10.0852 26.7992C10.0852 24.5606 11.3452 22.4329 13.5852 20.8229C15.8252 19.2129 18.9737 18.1819 22.4999 18.1819M7.55203 20.4656C7.55215 19.9566 7.72235 19.4621 8.0356 19.0609C8.34885 18.6596 8.78719 18.3745 9.281 18.2508C9.77481 18.1272 10.2958 18.172 10.7612 18.3783C11.2266 18.5846 11.6097 18.9405 11.8497 19.3894C10.6845 20.3081 9.71619 21.3917 9.02932 22.6035C8.59542 22.4389 8.2218 22.1463 7.95798 21.7645C7.69415 21.3827 7.55258 20.9297 7.55203 20.4656ZM35.9706 22.6035C35.2837 21.3931 34.3154 20.3067 33.1501 19.3894C33.3243 19.064 33.5748 18.7857 33.88 18.5782C34.1853 18.3708 34.5363 18.2404 34.9029 18.1983C35.2696 18.1562 35.641 18.2035 35.9854 18.3363C36.3297 18.4691 36.6367 18.6834 36.8802 18.9608C37.1236 19.2383 37.2962 19.5705 37.3831 19.9292C37.47 20.2879 37.4687 20.6623 37.3793 21.0204C37.2899 21.3785 37.115 21.7096 36.8697 21.9853C36.6243 22.261 36.3158 22.4731 35.9706 22.6035Z" fill="white"/>
</svg>
