<svg width="36" height="37" viewBox="0 0 36 37" fill="none" xmlns="http://www.w3.org/2000/svg">
<path d="M17.8172 3.69495C12.0712 3.69495 7.42383 8.34228 7.42383 14.0883C7.42383 21.8834 17.8172 33.3904 17.8172 33.3904C17.8172 33.3904 28.2106 21.8834 28.2106 14.0883C28.2106 8.34228 23.5633 3.69495 17.8172 3.69495ZM17.8172 17.8003C16.8328 17.8003 15.8886 17.4092 15.1925 16.7131C14.4964 16.0169 14.1053 15.0728 14.1053 14.0883C14.1053 13.1039 14.4964 12.1597 15.1925 11.4636C15.8886 10.7675 16.8328 10.3764 17.8172 10.3764C18.8017 10.3764 19.7458 10.7675 20.4419 11.4636C21.1381 12.1597 21.5291 13.1039 21.5291 14.0883C21.5291 15.0728 21.1381 16.0169 20.4419 16.7131C19.7458 17.4092 18.8017 17.8003 17.8172 17.8003Z" fill="black"/>
</svg>
